<?xml version="1.0" encoding="utf-8"?>
<!-- Generator: Adobe Illustrator 24.3.0, SVG Export Plug-In . SVG Version: 6.00 Build 0)  -->
<svg version="1.1" id="Layer_1" xmlns="http://www.w3.org/2000/svg" xmlns:xlink="http://www.w3.org/1999/xlink" x="0px" y="0px"
	 viewBox="0 0 1199.11 372" style="enable-background:new 0 0 1199.11 372;" xml:space="preserve">
<style type="text/css">
	.st0{fill:#B10655;}
	.st1{fill:#FFFFFF;}
</style>
<g>
	<path class="st0" d="M98.69,257.62l-29.9-52.18h-7.62v52.18H27.75V119.46h57.06c10.95,0,20.19,1.89,27.75,5.67
		c7.55,3.78,13.22,8.96,17,15.53c3.78,6.58,5.67,14.11,5.67,22.57c0,10.04-2.77,18.57-8.31,25.6c-5.54,7.04-13.58,11.86-24.14,14.46
		l32.83,54.33H98.69z M61.17,182.58h20.71c6.64,0,11.53-1.46,14.66-4.4c3.13-2.93,4.69-7.26,4.69-12.99c0-5.47-1.6-9.77-4.79-12.9
		c-3.19-3.13-8.05-4.69-14.56-4.69H61.17V182.58z"/>
	<path class="st0" d="M254.64,209.16h-75.63c0.39,8.21,2.47,14.1,6.25,17.68c3.78,3.59,8.6,5.38,14.46,5.38
		c4.95,0,9.05-1.24,12.31-3.71c3.25-2.47,5.4-5.67,6.45-9.57h35.37c-1.44,7.69-4.56,14.56-9.38,20.62
		c-4.82,6.06-10.95,10.81-18.37,14.27c-7.43,3.46-15.7,5.18-24.82,5.18c-10.68,0-20.16-2.25-28.43-6.74
		c-8.28-4.49-14.75-10.97-19.45-19.45c-4.69-8.46-7.03-18.37-7.03-29.7c0-11.46,2.31-21.4,6.93-29.8
		c4.62-8.41,11.11-14.85,19.45-19.35c8.34-4.5,17.85-6.74,28.53-6.74c10.81,0,20.32,2.21,28.53,6.64
		c8.21,4.43,14.56,10.65,19.06,18.66c4.49,8.01,6.74,17.23,6.74,27.65C255.61,202.9,255.28,205.9,254.64,209.16z M216.04,178.96
		c-3.98-3.58-8.89-5.38-14.75-5.38c-6.12,0-11.2,1.83-15.24,5.47c-4.04,3.65-6.32,8.99-6.84,16.02h42.6
		C221.93,187.92,220.01,182.55,216.04,178.96z"/>
	<path class="st0" d="M371.98,159.91c7.36,8.34,11.05,19.8,11.05,34.4v63.32h-33.42v-59.41c0-7.3-1.92-13-5.77-17.1
		c-3.84-4.1-8.96-6.16-15.34-6.16c-6.77,0-12.15,2.15-16.12,6.45c-3.98,4.3-5.96,10.42-5.96,18.37v57.85H273V148.58h33.42v19.93
		c3.13-6.51,7.78-11.66,13.97-15.44c6.19-3.78,13.45-5.67,21.79-5.67C354.69,147.4,364.62,151.57,371.98,159.91z"/>
	<path class="st0" d="M507.71,209.16h-75.63c0.39,8.21,2.47,14.1,6.25,17.68c3.78,3.59,8.6,5.38,14.46,5.38
		c4.95,0,9.05-1.24,12.31-3.71c3.25-2.47,5.4-5.67,6.45-9.57h35.37c-1.44,7.69-4.56,14.56-9.38,20.62
		c-4.82,6.06-10.95,10.81-18.37,14.27c-7.43,3.46-15.7,5.18-24.82,5.18c-10.68,0-20.16-2.25-28.43-6.74
		c-8.28-4.49-14.75-10.97-19.45-19.45c-4.69-8.46-7.03-18.37-7.03-29.7c0-11.46,2.31-21.4,6.93-29.8
		c4.62-8.41,11.11-14.85,19.45-19.35c8.34-4.5,17.85-6.74,28.53-6.74c10.81,0,20.32,2.21,28.53,6.64
		c8.21,4.43,14.56,10.65,19.06,18.66c4.49,8.01,6.74,17.23,6.74,27.65C508.69,202.9,508.36,205.9,507.71,209.16z M469.11,178.96
		c-3.98-3.58-8.89-5.38-14.75-5.38c-6.12,0-11.2,1.83-15.24,5.47c-4.04,3.65-6.32,8.99-6.84,16.02h42.6
		C475,187.92,473.08,182.55,469.11,178.96z"/>
	<path class="st0" d="M594.28,257.62L572,226.55l-18.17,31.07h-36.74l36.15-56.87l-37.52-52.18h37.52l22.08,30.68l18.17-30.68h36.74
		l-36.94,55.5l38.5,53.55H594.28z"/>
	<path class="st0" d="M728.92,158.83c9.51,7.75,15.5,18.4,17.98,31.95h-35.37c-1.04-4.69-3.19-8.34-6.45-10.95
		c-3.26-2.6-7.36-3.91-12.31-3.91c-5.86,0-10.69,2.31-14.46,6.94c-3.78,4.63-5.67,11.37-5.67,20.23c0,8.86,1.89,15.61,5.67,20.23
		c3.78,4.62,8.6,6.93,14.46,6.93c4.95,0,9.05-1.3,12.31-3.91c3.26-2.6,5.41-6.25,6.45-10.94h35.37
		c-2.48,13.55-8.47,24.2-17.98,31.95c-9.51,7.75-21.3,11.63-35.37,11.63c-10.68,0-20.16-2.25-28.43-6.74
		c-8.28-4.49-14.75-10.97-19.45-19.45c-4.69-8.46-7.03-18.37-7.03-29.7c0-11.46,2.31-21.4,6.93-29.8
		c4.62-8.41,11.11-14.85,19.45-19.35c8.34-4.5,17.85-6.74,28.53-6.74C707.62,147.21,719.41,151.09,728.92,158.83z"/>
	<path class="st0" d="M844.33,153.95c8.53,4.49,15.24,10.98,20.13,19.44c4.89,8.47,7.33,18.37,7.33,29.7
		c0,11.34-2.45,21.24-7.33,29.7c-4.88,8.47-11.59,14.95-20.13,19.45c-8.54,4.5-18.21,6.74-29.02,6.74
		c-10.82,0-20.52-2.25-29.12-6.74c-8.6-4.49-15.34-10.97-20.23-19.45c-4.89-8.46-7.33-18.37-7.33-29.7c0-11.33,2.44-21.23,7.33-29.7
		c4.89-8.46,11.63-14.95,20.23-19.44c8.6-4.5,18.3-6.74,29.12-6.74C826.12,147.21,835.79,149.46,844.33,153.95z M799.18,183.07
		c-4.37,4.63-6.55,11.3-6.55,20.03c0,8.73,2.18,15.37,6.55,19.94c4.36,4.56,9.74,6.84,16.12,6.84c6.38,0,11.73-2.28,16.02-6.84
		c4.3-4.56,6.45-11.2,6.45-19.94c0-8.73-2.15-15.4-6.45-20.03c-4.3-4.62-9.64-6.94-16.02-6.94
		C808.92,176.13,803.54,178.45,799.18,183.07z"/>
	<path class="st0" d="M952.1,152.87c5.99,3.78,10.36,8.93,13.09,15.44v-55.31h33.42v144.62h-33.42v-19.74
		c-2.74,6.52-7.1,11.66-13.09,15.44c-6,3.78-13.16,5.67-21.5,5.67c-8.99,0-17.03-2.25-24.13-6.74c-7.1-4.49-12.7-10.97-16.81-19.45
		c-4.1-8.46-6.15-18.37-6.15-29.7c0-11.46,2.05-21.4,6.15-29.8c4.1-8.41,9.71-14.85,16.81-19.35c7.1-4.5,15.14-6.74,24.13-6.74
		C938.94,147.21,946.1,149.1,952.1,152.87z M924.05,183.56c-4.37,4.69-6.55,11.21-6.55,19.54c0,8.34,2.18,14.85,6.55,19.55
		c4.36,4.69,10.13,7.03,17.3,7.03c7.03,0,12.8-2.41,17.3-7.23c4.49-4.82,6.74-11.27,6.74-19.35c0-8.21-2.25-14.69-6.74-19.44
		c-4.5-4.76-10.26-7.13-17.3-7.13C934.18,176.52,928.42,178.87,924.05,183.56z"/>
	<path class="st0" d="M1124.27,209.16h-75.63c0.39,8.21,2.47,14.1,6.25,17.68c3.78,3.59,8.6,5.38,14.46,5.38
		c4.95,0,9.05-1.24,12.31-3.71c3.25-2.47,5.4-5.67,6.45-9.57h35.37c-1.44,7.69-4.56,14.56-9.38,20.62
		c-4.82,6.06-10.95,10.81-18.37,14.27c-7.43,3.46-15.7,5.18-24.82,5.18c-10.68,0-20.16-2.25-28.43-6.74
		c-8.28-4.49-14.75-10.97-19.45-19.45c-4.69-8.46-7.03-18.37-7.03-29.7c0-11.46,2.31-21.4,6.93-29.8
		c4.62-8.41,11.11-14.85,19.45-19.35c8.34-4.5,17.85-6.74,28.53-6.74c10.81,0,20.32,2.21,28.53,6.64
		c8.21,4.43,14.56,10.65,19.06,18.66c4.49,8.01,6.74,17.23,6.74,27.65C1125.24,202.9,1124.91,205.9,1124.27,209.16z M1085.67,178.96
		c-3.98-3.58-8.89-5.38-14.75-5.38c-6.12,0-11.2,1.83-15.24,5.47c-4.04,3.65-6.32,8.99-6.84,16.02h42.6
		C1091.56,187.92,1089.64,182.55,1085.67,178.96z"/>
	<path class="st0" d="M1171.36,224.21v33.42h-34.59v-33.42H1171.36z"/>
</g>
<g>
	<path class="st1" d="M1422.69,257.62l-29.9-52.18h-7.62v52.18h-33.42V119.46h57.06c10.95,0,20.19,1.89,27.75,5.67
		c7.55,3.78,13.22,8.96,17,15.53c3.78,6.58,5.67,14.11,5.67,22.57c0,10.04-2.77,18.57-8.31,25.6c-5.54,7.04-13.58,11.86-24.14,14.46
		l32.83,54.33H1422.69z M1385.17,182.58h20.71c6.64,0,11.53-1.46,14.66-4.4c3.13-2.93,4.69-7.26,4.69-12.99
		c0-5.47-1.6-9.77-4.79-12.9c-3.19-3.13-8.05-4.69-14.56-4.69h-20.71V182.58z"/>
	<path class="st1" d="M1578.64,209.16h-75.63c0.39,8.21,2.47,14.1,6.25,17.68c3.78,3.59,8.6,5.38,14.46,5.38
		c4.95,0,9.05-1.24,12.31-3.71c3.25-2.47,5.4-5.67,6.45-9.57h35.37c-1.44,7.69-4.56,14.56-9.38,20.62
		c-4.82,6.06-10.95,10.81-18.37,14.27c-7.43,3.46-15.7,5.18-24.82,5.18c-10.68,0-20.16-2.25-28.43-6.74
		c-8.28-4.49-14.75-10.97-19.45-19.45c-4.69-8.46-7.03-18.37-7.03-29.7c0-11.46,2.31-21.4,6.93-29.8
		c4.62-8.41,11.11-14.85,19.45-19.35c8.34-4.5,17.85-6.74,28.53-6.74c10.81,0,20.32,2.21,28.53,6.64
		c8.21,4.43,14.56,10.65,19.06,18.66c4.49,8.01,6.74,17.23,6.74,27.65C1579.61,202.9,1579.28,205.9,1578.64,209.16z M1540.04,178.96
		c-3.98-3.58-8.89-5.38-14.75-5.38c-6.12,0-11.2,1.83-15.24,5.47c-4.04,3.65-6.32,8.99-6.84,16.02h42.6
		C1545.93,187.92,1544.01,182.55,1540.04,178.96z"/>
	<path class="st1" d="M1695.98,159.91c7.36,8.34,11.05,19.8,11.05,34.4v63.32h-33.42v-59.41c0-7.3-1.92-13-5.77-17.1
		c-3.84-4.1-8.96-6.16-15.34-6.16c-6.78,0-12.15,2.15-16.12,6.45c-3.98,4.3-5.96,10.42-5.96,18.37v57.85H1597V148.58h33.42v19.93
		c3.13-6.51,7.78-11.66,13.97-15.44c6.19-3.78,13.45-5.67,21.79-5.67C1678.69,147.4,1688.62,151.57,1695.98,159.91z"/>
	<path class="st1" d="M1831.71,209.16h-75.63c0.39,8.21,2.47,14.1,6.25,17.68c3.78,3.59,8.6,5.38,14.46,5.38
		c4.95,0,9.05-1.24,12.31-3.71c3.25-2.47,5.4-5.67,6.45-9.57h35.37c-1.44,7.69-4.56,14.56-9.38,20.62
		c-4.82,6.06-10.95,10.81-18.37,14.27c-7.43,3.46-15.7,5.18-24.82,5.18c-10.68,0-20.16-2.25-28.43-6.74
		c-8.28-4.49-14.75-10.97-19.45-19.45c-4.69-8.46-7.03-18.37-7.03-29.7c0-11.46,2.31-21.4,6.93-29.8
		c4.62-8.41,11.11-14.85,19.45-19.35c8.34-4.5,17.85-6.74,28.53-6.74c10.81,0,20.32,2.21,28.53,6.64
		c8.21,4.43,14.56,10.65,19.06,18.66c4.49,8.01,6.74,17.23,6.74,27.65C1832.69,202.9,1832.36,205.9,1831.71,209.16z M1793.11,178.96
		c-3.98-3.58-8.89-5.38-14.75-5.38c-6.12,0-11.2,1.83-15.24,5.47c-4.04,3.65-6.32,8.99-6.84,16.02h42.6
		C1799,187.92,1797.08,182.55,1793.11,178.96z"/>
	<path class="st1" d="M1918.28,257.62L1896,226.55l-18.17,31.07h-36.74l36.15-56.87l-37.52-52.18h37.52l22.08,30.68l18.17-30.68
		h36.74l-36.94,55.5l38.5,53.55H1918.28z"/>
	<path class="st1" d="M2052.92,158.83c9.51,7.75,15.5,18.4,17.98,31.95h-35.37c-1.04-4.69-3.19-8.34-6.45-10.95
		c-3.26-2.6-7.36-3.91-12.31-3.91c-5.86,0-10.69,2.31-14.46,6.94c-3.78,4.63-5.67,11.37-5.67,20.23c0,8.86,1.89,15.61,5.67,20.23
		c3.78,4.62,8.6,6.93,14.46,6.93c4.95,0,9.05-1.3,12.31-3.91c3.26-2.6,5.41-6.25,6.45-10.94h35.37
		c-2.48,13.55-8.47,24.2-17.98,31.95c-9.51,7.75-21.3,11.63-35.37,11.63c-10.68,0-20.16-2.25-28.43-6.74
		c-8.28-4.49-14.75-10.97-19.45-19.45c-4.69-8.46-7.03-18.37-7.03-29.7c0-11.46,2.31-21.4,6.93-29.8
		c4.62-8.41,11.11-14.85,19.45-19.35c8.34-4.5,17.85-6.74,28.53-6.74C2031.62,147.21,2043.41,151.09,2052.92,158.83z"/>
	<path class="st1" d="M2168.33,153.95c8.53,4.49,15.24,10.98,20.13,19.44c4.89,8.47,7.33,18.37,7.33,29.7
		c0,11.34-2.45,21.24-7.33,29.7c-4.88,8.47-11.59,14.95-20.13,19.45c-8.54,4.5-18.21,6.74-29.02,6.74
		c-10.82,0-20.52-2.25-29.12-6.74c-8.6-4.49-15.34-10.97-20.23-19.45c-4.89-8.46-7.33-18.37-7.33-29.7c0-11.33,2.44-21.23,7.33-29.7
		c4.89-8.46,11.63-14.95,20.23-19.44c8.6-4.5,18.3-6.74,29.12-6.74C2150.12,147.21,2159.79,149.46,2168.33,153.95z M2123.18,183.07
		c-4.37,4.63-6.55,11.3-6.55,20.03c0,8.73,2.18,15.37,6.55,19.94c4.36,4.56,9.74,6.84,16.12,6.84c6.38,0,11.73-2.28,16.02-6.84
		c4.3-4.56,6.45-11.2,6.45-19.94c0-8.73-2.15-15.4-6.45-20.03c-4.3-4.62-9.64-6.94-16.02-6.94
		C2132.92,176.13,2127.54,178.45,2123.18,183.07z"/>
	<path class="st1" d="M2276.1,152.87c5.99,3.78,10.36,8.93,13.09,15.44v-55.31h33.42v144.62h-33.42v-19.74
		c-2.74,6.52-7.1,11.66-13.09,15.44c-6,3.78-13.16,5.67-21.5,5.67c-8.99,0-17.03-2.25-24.13-6.74c-7.1-4.49-12.7-10.97-16.81-19.45
		c-4.1-8.46-6.15-18.37-6.15-29.7c0-11.46,2.05-21.4,6.15-29.8c4.1-8.41,9.71-14.85,16.81-19.35c7.1-4.5,15.14-6.74,24.13-6.74
		C2262.94,147.21,2270.1,149.1,2276.1,152.87z M2248.05,183.56c-4.37,4.69-6.55,11.21-6.55,19.54c0,8.34,2.18,14.85,6.55,19.55
		c4.36,4.69,10.13,7.03,17.3,7.03c7.03,0,12.8-2.41,17.3-7.23c4.49-4.82,6.74-11.27,6.74-19.35c0-8.21-2.25-14.69-6.74-19.44
		c-4.5-4.76-10.26-7.13-17.3-7.13C2258.18,176.52,2252.42,178.87,2248.05,183.56z"/>
	<path class="st1" d="M2448.27,209.16h-75.63c0.39,8.21,2.47,14.1,6.25,17.68c3.78,3.59,8.6,5.38,14.46,5.38
		c4.95,0,9.05-1.24,12.31-3.71c3.25-2.47,5.4-5.67,6.45-9.57h35.37c-1.44,7.69-4.56,14.56-9.38,20.62
		c-4.82,6.06-10.95,10.81-18.37,14.27c-7.43,3.46-15.7,5.18-24.82,5.18c-10.68,0-20.16-2.25-28.43-6.74
		c-8.28-4.49-14.75-10.97-19.45-19.45c-4.69-8.46-7.03-18.37-7.03-29.7c0-11.46,2.31-21.4,6.93-29.8
		c4.62-8.41,11.11-14.85,19.45-19.35c8.34-4.5,17.85-6.74,28.53-6.74c10.81,0,20.32,2.21,28.53,6.64
		c8.21,4.43,14.56,10.65,19.06,18.66c4.49,8.01,6.74,17.23,6.74,27.65C2449.24,202.9,2448.91,205.9,2448.27,209.16z M2409.67,178.96
		c-3.98-3.58-8.89-5.38-14.75-5.38c-6.12,0-11.2,1.83-15.24,5.47c-4.04,3.65-6.32,8.99-6.84,16.02h42.6
		C2415.56,187.92,2413.64,182.55,2409.67,178.96z"/>
	<path class="st1" d="M2495.36,224.21v33.42h-34.59v-33.42H2495.36z"/>
</g>
</svg>
